<?xml version="1.0" encoding="utf-8"?>
<!-- Generator: Adobe Illustrator 23.0.5, SVG Export Plug-In . SVG Version: 6.00 Build 0)  -->
<svg version="1.1" id="Слой_1" xmlns="http://www.w3.org/2000/svg" xmlns:xlink="http://www.w3.org/1999/xlink" x="0px" y="0px"
	 viewBox="0 0 682 682" style="enable-background:new 0 0 682 682;" xml:space="preserve">
<style type="text/css">
	.st0{fill:#F8F9FF;}
	.st1{stroke:#201600;stroke-miterlimit:10;}
	.st2{fill:#0D9343;}
</style>
<circle class="st0" cx="341" cy="341" r="337.5"/>
<path class="st1" d="M610.8,172.4c-3-4.9-9.7-5.9-14.1-2.2l-32,27c-10.5,8.9-26.2,7.5-35.1-3l-8.9-10.6c-8.9-10.5-7.5-26.2,3-35.1
	l32.5-27.3c4.4-3.6,4.6-10.5,0.3-14.3c-13-11.9-27-22.8-41.7-32.5c-4.9-3.2-11.4-1.4-14,4l-17.6,37.7c-5.7,12.4-20.6,17.8-33,12.1
	l-12.5-5.9c-12.4-5.7-17.8-20.6-12.1-33l17.9-38.5c2.4-5.2-0.3-11.4-5.9-13.2c-16.7-5.4-33.9-9.4-51.7-11.7
	c-5.7-0.8-10.8,3.6-10.8,9.4v41.9c0,13.6-11.1,24.9-24.9,24.9h-13.8c-13.6,0-24.9-11.1-24.9-24.9V34.6c0-5.7-4.9-10.2-10.6-9.5
	c-17.8,2.2-35.2,6-52,11.1c-5.6,1.7-8.4,7.9-5.9,13.2l17.8,38.1c5.7,12.4,0.5,27.1-12.1,33l-12.5,5.9c-12.4,5.7-27.1,0.5-33-12.1
	l-17.9-38.5c-2.4-5.2-8.9-7.1-13.6-4.1c-15.1,9.5-29.2,20.1-42.3,32c-4.3,3.8-4.3,10.6,0.2,14.4l32,27c10.5,8.9,11.9,24.4,3,35.1
	l-8.9,10.6c-8.9,10.5-24.4,11.9-35.1,3l-32.5-27.3c-4.4-3.6-10.9-2.7-14.1,2.1c-30.8,47.7-49,104.2-50.3,164.8
	C20,512.6,166.7,660.1,346.2,657.1c172.7-2.9,312-143.7,312-317.2C658.7,278.4,641.1,220.9,610.8,172.4z M343.7,595.6
	c-131.3,0-237.9-106.6-237.9-237.9s106.6-237.9,237.9-237.9s237.9,106.6,237.9,237.9S475,595.6,343.7,595.6z"/>
<path class="st2" d="M453.9,177.5l-68.5,146.9c-5.9,12.7-21.1,18.2-33.8,12.2l-11.6-5.4c-12.7-5.9-18.2-21.1-12.2-33.8l67.2-144.2
	c2.5-5.6-0.6-12.1-6.7-13.3c-15.9-3.2-32.2-4.8-49-4.4c-118.8,2.2-217.9,103.4-217.9,222.2c0.2,121,97.2,219.3,217.8,221.7
	c123.1,2.4,225.4-97.1,226.3-220.1c0.6-77.4-38.4-145.6-97.9-185.9C463.1,170.3,456.5,172.1,453.9,177.5z"/>
</svg>
