<?xml version="1.0" encoding="utf-8"?>
<!-- Generator: Adobe Illustrator 23.0.5, SVG Export Plug-In . SVG Version: 6.00 Build 0)  -->
<svg version="1.1" id="Слой_1" xmlns="http://www.w3.org/2000/svg" xmlns:xlink="http://www.w3.org/1999/xlink" x="0px" y="0px"
	 viewBox="0 0 682 682" style="enable-background:new 0 0 682 682;" xml:space="preserve">
<style type="text/css">
	.st0{display:none;stroke:#201600;stroke-miterlimit:10;}
	.st1{fill:#0D9343;}
</style>
<path class="st0" d="M509.4,224.2c-1.9-3.1-6.1-3.7-8.9-1.4l-20.2,17c-6.6,5.6-16.5,4.7-22.1-1.9l-5.6-6.7
	c-5.6-6.6-4.7-16.5,1.9-22.1l20.5-17.2c2.8-2.3,2.9-6.6,0.2-9c-8.2-7.5-17-14.4-26.3-20.5c-3.1-2-7.2-0.9-8.8,2.5L429,188.7
	c-3.6,7.8-13,11.2-20.8,7.6l-7.9-3.7c-7.8-3.6-11.2-13-7.6-20.8l11.3-24.3c1.5-3.3-0.2-7.2-3.7-8.3c-10.5-3.4-21.4-5.9-32.6-7.4
	c-3.6-0.5-6.8,2.3-6.8,5.9v26.4c0,8.6-7,15.7-15.7,15.7h-8.7c-8.6,0-15.7-7-15.7-15.7v-26.8c0-3.6-3.1-6.4-6.7-6
	c-11.2,1.4-22.2,3.8-32.8,7c-3.5,1.1-5.3,5-3.7,8.3l11.2,24c3.6,7.8,0.3,17.1-7.6,20.8l-7.9,3.7c-7.8,3.6-17.1,0.3-20.8-7.6
	l-11.3-24.3c-1.5-3.3-5.6-4.5-8.6-2.6c-9.5,6-18.4,12.7-26.7,20.2c-2.7,2.4-2.7,6.7,0.1,9.1l20.2,17c6.6,5.6,7.5,15.4,1.9,22.1
	l-5.6,6.7c-5.6,6.6-15.4,7.5-22.1,1.9l-20.5-17.2c-2.8-2.3-6.9-1.7-8.9,1.3c-19.4,30.1-30.9,65.7-31.7,103.9
	c-2.4,113.1,90.1,206.1,203.3,204.2c108.9-1.8,196.7-90.6,196.7-200C539.6,291,528.5,254.8,509.4,224.2z M341,491
	c-82.8,0-150-67.2-150-150s67.2-150,150-150s150,67.2,150,150S423.8,491,341,491z"/>
<path class="st1" d="M410.5,227.4L367.3,320c-3.7,8-13.3,11.5-21.3,7.7l-7.3-3.4c-8-3.7-11.5-13.3-7.7-21.3l42.4-90.9
	c1.6-3.5-0.4-7.6-4.2-8.4c-10-2-20.3-3-30.9-2.8c-74.9,1.4-137.4,65.2-137.4,140.1c0.1,76.3,61.3,138.3,137.3,139.8
	c77.6,1.5,142.1-61.2,142.7-138.8c0.4-48.8-24.2-91.8-61.7-117.2C416.3,222.9,412.1,224,410.5,227.4z"/>
</svg>
