<?xml version="1.0" encoding="utf-8"?>
<!-- Generator: Adobe Illustrator 23.0.5, SVG Export Plug-In . SVG Version: 6.00 Build 0)  -->
<svg version="1.1" id="Слой_1" xmlns="http://www.w3.org/2000/svg" xmlns:xlink="http://www.w3.org/1999/xlink" x="0px" y="0px"
	 viewBox="0 0 682 682" style="enable-background:new 0 0 682 682;" xml:space="preserve">
<style type="text/css">
	.st0{stroke:#201600;stroke-miterlimit:10;}
	.st1{display:none;fill:#0D9343;}
</style>
<path class="st0" d="M509.43,224.16c-1.92-3.08-6.15-3.72-8.93-1.38l-20.24,16.98c-6.62,5.56-16.5,4.69-22.06-1.93l-5.59-6.66
	c-5.56-6.62-4.69-16.5,1.93-22.06l20.5-17.21c2.78-2.34,2.85-6.57,0.18-9.04c-8.17-7.54-16.96-14.41-26.3-20.52
	c-3.07-2.01-7.21-0.87-8.76,2.46l-11.17,23.94c-3.65,7.84-12.97,11.23-20.8,7.57l-7.88-3.67c-7.84-3.65-11.23-12.97-7.57-20.8
	l11.33-24.3c1.54-3.29-0.19-7.16-3.66-8.27c-10.53-3.36-21.44-5.87-32.64-7.45c-3.59-0.51-6.79,2.32-6.79,5.95v26.42
	c0,8.65-7.01,15.66-15.66,15.66h-8.69c-8.65,0-15.66-7.01-15.66-15.66v-26.78c0-3.59-3.14-6.41-6.7-5.96
	c-11.23,1.42-22.18,3.76-32.75,6.96c-3.51,1.06-5.29,4.97-3.74,8.29l11.18,23.97c3.65,7.84,0.26,17.15-7.57,20.8l-7.88,3.67
	c-7.84,3.65-17.15,0.26-20.8-7.57l-11.32-24.28c-1.52-3.26-5.56-4.48-8.6-2.56c-9.46,5.99-18.39,12.74-26.69,20.19
	c-2.73,2.45-2.69,6.74,0.12,9.09l20.22,16.97c6.62,5.56,7.49,15.43,1.93,22.06l-5.59,6.66c-5.56,6.62-15.43,7.49-22.06,1.93
	l-20.52-17.22c-2.75-2.31-6.93-1.71-8.88,1.31c-19.36,30.07-30.9,65.65-31.7,103.88c-2.36,113.14,90.15,206.08,203.3,204.23
	c108.91-1.79,196.66-90.63,196.66-199.97C539.61,291.05,528.55,254.83,509.43,224.16z M341,491c-82.84,0-150-67.16-150-150
	s67.16-150,150-150s150,67.16,150,150S423.84,491,341,491z"/>
<path class="st1" d="M410.52,227.38l-43.2,92.65c-3.73,8.01-13.25,11.47-21.26,7.74l-7.25-3.38c-8.01-3.73-11.47-13.25-7.74-21.26
	l42.37-90.86c1.63-3.5-0.42-7.64-4.2-8.41c-9.95-2.04-20.28-3.03-30.88-2.83c-74.94,1.39-137.44,65.2-137.35,140.15
	c0.09,76.32,61.26,138.34,137.25,139.8c77.58,1.49,142.12-61.23,142.74-138.82c0.39-48.77-24.16-91.84-61.67-117.2
	C416.27,222.88,412.08,224.03,410.52,227.38z"/>
</svg>
